<svg xmlns="http://www.w3.org/2000/svg" width="221.26" height="35" viewBox="0 0 221.26 35"><rect class="svg__rect" x="0" y="0" width="0" height="35" fill="#31C4F3"/><rect class="svg__rect" x="0" y="0" width="221.26" height="35" fill="#389AD5"/><path class="svg__text" d="" fill="#FFFFFF"/><path class="svg__text" d="M16.39 22L14.19 22L14.19 13.60L16.14 13.60L19.10 18.45L21.98 13.60L23.93 13.60L23.96 22L21.78 22L21.75 17.55L19.59 21.17L18.54 21.17L16.39 17.67L16.39 22ZM31.24 18.95L28.04 13.60L30.55 13.60L32.54 16.94L34.53 13.60L36.83 13.60L33.62 18.99L33.62 22L31.24 22L31.24 18.95ZM49.97 22L47.25 13.60L49.70 13.60L51.38 18.96L53.16 13.60L55.34 13.60L57.04 19.01L58.80 13.60L61.07 13.60L58.34 22L55.80 22L54.20 16.89L52.51 22L49.97 22ZM67.66 22L64.94 13.60L67.39 13.60L69.07 18.96L70.85 13.60L73.03 13.60L74.73 19.01L76.49 13.60L78.76 13.60L76.03 22L73.49 22L71.89 16.89L70.20 22L67.66 22ZM85.35 22L82.63 13.60L85.07 13.60L86.76 18.96L88.54 13.60L90.72 13.60L92.42 19.01L94.18 13.60L96.45 13.60L93.72 22L91.18 22L89.57 16.89L87.89 22L85.35 22ZM110.31 22L107.93 22L107.93 13.60L111.78 13.60Q112.91 13.60 113.75 13.98Q114.59 14.35 115.05 15.06Q115.51 15.76 115.51 16.71L115.51 16.71Q115.51 17.66 115.05 18.35Q114.59 19.05 113.75 19.42Q112.91 19.80 111.78 19.80L111.78 19.80L110.31 19.80L110.31 22ZM110.31 15.47L110.31 17.93L111.63 17.93Q112.36 17.93 112.73 17.61Q113.11 17.29 113.11 16.71L113.11 16.71Q113.11 16.12 112.73 15.80Q112.36 15.47 111.63 15.47L111.63 15.47L110.31 15.47ZM119.83 17.80L119.83 17.80Q119.83 16.55 120.44 15.55Q121.04 14.56 122.10 14.00Q123.17 13.43 124.50 13.43L124.50 13.43Q125.83 13.43 126.89 14.00Q127.95 14.56 128.56 15.55Q129.17 16.55 129.17 17.80L129.17 17.80Q129.17 19.05 128.56 20.04Q127.95 21.04 126.89 21.60Q125.83 22.17 124.50 22.17L124.50 22.17Q123.17 22.17 122.10 21.60Q121.04 21.04 120.44 20.04Q119.83 19.05 119.83 17.80ZM122.23 17.80L122.23 17.80Q122.23 18.51 122.53 19.05Q122.83 19.60 123.35 19.90Q123.86 20.20 124.50 20.20L124.50 20.20Q125.14 20.20 125.65 19.90Q126.17 19.60 126.47 19.05Q126.76 18.51 126.76 17.80L126.76 17.80Q126.76 17.09 126.47 16.54Q126.17 16 125.65 15.70Q125.14 15.40 124.50 15.40L124.50 15.40Q123.86 15.40 123.35 15.70Q122.83 16 122.53 16.54Q122.23 17.09 122.23 17.80ZM136.27 22L133.89 22L133.89 13.60L137.74 13.60Q138.88 13.60 139.72 13.98Q140.56 14.35 141.01 15.06Q141.47 15.76 141.47 16.71L141.47 16.71Q141.47 17.62 141.04 18.30Q140.62 18.98 139.82 19.36L139.82 19.36L141.64 22L139.09 22L137.57 19.77L136.27 19.77L136.27 22ZM136.27 15.47L136.27 17.93L137.59 17.93Q138.32 17.93 138.70 17.61Q139.07 17.29 139.07 16.71L139.07 16.71Q139.07 16.12 138.70 15.79Q138.32 15.47 137.59 15.47L137.59 15.47L136.27 15.47ZM148.05 15.48L145.47 15.48L145.47 13.60L152.99 13.60L152.99 15.48L150.42 15.48L150.42 22L148.05 22L148.05 15.48ZM159.74 22L157.36 22L157.36 13.60L163.95 13.60L163.95 15.44L159.74 15.44L159.74 17.28L163.45 17.28L163.45 19.12L159.74 19.12L159.74 22ZM168.12 17.80L168.12 17.80Q168.12 16.55 168.72 15.55Q169.33 14.56 170.39 14.00Q171.45 13.43 172.78 13.43L172.78 13.43Q174.11 13.43 175.18 14.00Q176.24 14.56 176.85 15.55Q177.45 16.55 177.45 17.80L177.45 17.80Q177.45 19.05 176.85 20.04Q176.24 21.04 175.18 21.60Q174.12 22.17 172.78 22.17L172.78 22.17Q171.45 22.17 170.39 21.60Q169.33 21.04 168.72 20.04Q168.12 19.05 168.12 17.80ZM170.52 17.80L170.52 17.80Q170.52 18.51 170.82 19.05Q171.12 19.60 171.64 19.90Q172.15 20.20 172.78 20.20L172.78 20.20Q173.42 20.20 173.94 19.90Q174.45 19.60 174.75 19.05Q175.05 18.51 175.05 17.80L175.05 17.80Q175.05 17.09 174.75 16.54Q174.45 16 173.94 15.70Q173.42 15.40 172.78 15.40L172.78 15.40Q172.14 15.40 171.63 15.70Q171.12 16 170.82 16.54Q170.52 17.09 170.52 17.80ZM188.57 22L182.18 22L182.18 13.60L184.56 13.60L184.56 20.11L188.57 20.11L188.57 22ZM195.37 22L192.99 22L192.99 13.60L195.37 13.60L195.37 22ZM200.11 17.80L200.11 17.80Q200.11 16.55 200.72 15.55Q201.32 14.56 202.38 14.00Q203.45 13.43 204.78 13.43L204.78 13.43Q206.11 13.43 207.17 14.00Q208.23 14.56 208.84 15.55Q209.45 16.55 209.45 17.80L209.45 17.80Q209.45 19.05 208.84 20.04Q208.23 21.04 207.17 21.60Q206.11 22.17 204.78 22.17L204.78 22.17Q203.45 22.17 202.38 21.60Q201.32 21.04 200.72 20.04Q200.11 19.05 200.11 17.80ZM202.51 17.80L202.51 17.80Q202.51 18.51 202.81 19.05Q203.11 19.60 203.63 19.90Q204.14 20.20 204.78 20.20L204.78 20.20Q205.41 20.20 205.93 19.90Q206.45 19.60 206.74 19.05Q207.04 18.51 207.04 17.80L207.04 17.80Q207.04 17.09 206.74 16.54Q206.45 16 205.93 15.70Q205.41 15.40 204.78 15.40L204.78 15.40Q204.14 15.40 203.62 15.70Q203.11 16 202.81 16.54Q202.51 17.09 202.51 17.80Z" fill="#FFFFFF" x="39"/></svg>