<svg xmlns="http://www.w3.org/2000/svg" width="94.97" height="35" viewBox="0 0 94.97 35"><rect class="svg__rect" x="0" y="0" width="94.97" height="35" fill="#31C4F3"/><rect class="svg__rect" x="94.97" y="0" width="0" height="35" fill="#389AD5"/><path class="svg__text" d="M15.70 22L14.22 22L14.22 13.47L15.70 13.47L15.70 17.02L19.51 17.02L19.51 13.47L20.99 13.47L20.99 22L19.51 22L19.51 18.21L15.70 18.21L15.70 22ZM27.30 22L25.82 22L25.82 13.47L27.30 13.47L27.30 22ZM33.59 22L32.11 22L32.11 13.47L35.11 13.47Q36.58 13.47 37.39 14.13Q38.19 14.79 38.19 16.05L38.19 16.05Q38.19 16.90 37.77 17.48Q37.36 18.06 36.62 18.37L36.62 18.37L38.54 21.92L38.54 22L36.95 22L35.24 18.71L33.59 18.71L33.59 22ZM33.59 14.66L33.59 17.52L35.11 17.52Q35.86 17.52 36.28 17.15Q36.71 16.77 36.71 16.11L36.71 16.11Q36.71 15.43 36.32 15.05Q35.93 14.68 35.15 14.66L35.15 14.66L33.59 14.66ZM48.16 22L42.58 22L42.58 13.47L48.12 13.47L48.12 14.66L44.06 14.66L44.06 17.02L47.57 17.02L47.57 18.19L44.06 18.19L44.06 20.82L48.16 20.82L48.16 22ZM59.81 22L58.33 22L58.33 13.47L60.25 13.47L62.72 20.01L65.17 13.47L67.09 13.47L67.09 22L65.61 22L65.61 19.19L65.76 15.43L63.24 22L62.18 22L59.66 15.43L59.81 19.19L59.81 22ZM77.40 22L71.83 22L71.83 13.47L77.36 13.47L77.36 14.66L73.31 14.66L73.31 17.02L76.81 17.02L76.81 18.19L73.31 18.19L73.31 20.82L77.40 20.82L77.40 22ZM81.57 21.33L81.57 21.33Q81.57 20.99 81.79 20.77Q82.00 20.55 82.38 20.55Q82.75 20.55 82.97 20.77Q83.19 20.99 83.19 21.33L83.19 21.33Q83.19 21.65 82.98 21.87Q82.77 22.08 82.38 22.08Q81.99 22.08 81.78 21.87Q81.57 21.65 81.57 21.33ZM81.75 19.49L81.61 13.47L83.11 13.47L82.97 19.49L81.75 19.49Z" fill="#FFFFFF"/><path class="svg__text" d="" fill="#FFFFFF" x="107.97"/></svg>